<svg xmlns="http://www.w3.org/2000/svg" xmlns:xlink="http://www.w3.org/1999/xlink" width="1080" zoomAndPan="magnify" viewBox="0 0 810 809.999993" height="1080" preserveAspectRatio="xMidYMid meet" version="1.0"><defs><g/><clipPath id="a5c73021cf"><path d="M 101.390625 405 L 729 405 L 729 667.378906 L 101.390625 667.378906 Z M 101.390625 405 " clip-rule="nonzero"/></clipPath></defs><g clip-path="url(#a5c73021cf)"><path fill="#ffffff" d="M 101.390625 405 L 728.636719 405 L 728.636719 667.378906 L 101.390625 667.378906 Z M 101.390625 405 " fill-opacity="1" fill-rule="nonzero"/></g><path stroke-linecap="butt" transform="matrix(2.410714, 0, 0, 2.410714, 106.586307, -67.499977)" fill="none" stroke-linejoin="miter" d="M 16.255404 288.999555 L 47.360036 83.170369 L 84.273697 83.170369 L 115.37671 288.999555 L 85.983188 288.999555 L 80.376706 247.027097 L 51.255407 247.027097 L 45.650546 288.999555 Z M 67.525548 150.093292 L 66.635964 144.830328 L 64.996149 144.830328 L 64.108186 150.093292 L 55.426241 215.104178 L 76.207493 215.104178 Z M 192.634356 199.380102 L 169.119539 199.380102 L 169.119539 288.999555 L 138.90449 288.999555 L 138.90449 83.170369 L 169.119539 83.170369 L 169.119539 168.345145 L 192.634356 168.345145 L 192.634356 83.170369 L 222.917461 83.170369 L 222.917461 288.999555 L 192.634356 288.999555 Z M 192.634356 199.380102 " stroke="#ffffff" stroke-width="11.9" stroke-opacity="1" stroke-miterlimit="4"/><g fill="#292929" fill-opacity="1"><g transform="translate(139.017944, 629.196385)"><g><path d="M 6.75 0 L 81.675781 -496.125 L 170.773438 -496.125 L 245.699219 0 L 174.824219 0 L 161.324219 -101.25 L 91.125 -101.25 L 77.625 0 Z M 130.273438 -334.800781 L 128.25 -347.625 L 124.199219 -347.625 L 122.175781 -334.800781 L 101.25 -178.199219 L 151.199219 -178.199219 Z M 130.273438 -334.800781 "/></g></g></g><g fill="#292929" fill-opacity="1"><g transform="translate(414.417489, 629.196385)"><g><path d="M 156.601562 -216 L 99.898438 -216 L 99.898438 0 L 27 0 L 27 -496.125 L 99.898438 -496.125 L 99.898438 -290.925781 L 156.601562 -290.925781 L 156.601562 -496.125 L 229.5 -496.125 L 229.5 0 L 156.601562 0 Z M 156.601562 -216 "/></g></g></g><g fill="#ffffff" fill-opacity="1"><g transform="translate(166.067191, 714.577806)"><g><path d="M 28.53125 -7.859375 L 11.484375 -7.859375 L 8.234375 0 L -0.46875 0 L 15.890625 -36.703125 L 24.28125 -36.703125 L 40.6875 0 L 31.78125 0 Z M 25.859375 -14.3125 L 20.03125 -28.375 L 14.203125 -14.3125 Z M 25.859375 -14.3125 "/></g></g></g><g fill="#ffffff" fill-opacity="1"><g transform="translate(209.648468, 714.577806)"><g><path d="M 4.359375 -36.703125 L 21.03125 -36.703125 C 25.007812 -36.703125 28.53125 -35.941406 31.59375 -34.421875 C 34.65625 -32.898438 37.03125 -30.757812 38.71875 -28 C 40.414062 -25.238281 41.265625 -22.023438 41.265625 -18.359375 C 41.265625 -14.679688 40.414062 -11.460938 38.71875 -8.703125 C 37.03125 -5.941406 34.65625 -3.800781 31.59375 -2.28125 C 28.53125 -0.757812 25.007812 0 21.03125 0 L 4.359375 0 Z M 20.609375 -6.96875 C 24.273438 -6.96875 27.203125 -7.988281 29.390625 -10.03125 C 31.578125 -12.082031 32.671875 -14.859375 32.671875 -18.359375 C 32.671875 -21.847656 31.578125 -24.613281 29.390625 -26.65625 C 27.203125 -28.707031 24.273438 -29.734375 20.609375 -29.734375 L 12.84375 -29.734375 L 12.84375 -6.96875 Z M 20.609375 -6.96875 "/></g></g></g><g fill="#ffffff" fill-opacity="1"><g transform="translate(256.376423, 714.577806)"><g><path d="M 28.53125 -7.859375 L 11.484375 -7.859375 L 8.234375 0 L -0.46875 0 L 15.890625 -36.703125 L 24.28125 -36.703125 L 40.6875 0 L 31.78125 0 Z M 25.859375 -14.3125 L 20.03125 -28.375 L 14.203125 -14.3125 Z M 22.390625 -47.25 L 31.203125 -47.25 L 21.703125 -39.6875 L 15.3125 -39.6875 Z M 22.390625 -47.25 "/></g></g></g><g fill="#ffffff" fill-opacity="1"><g transform="translate(299.957704, 714.577806)"><g><path d="M 38.015625 -36.703125 L 38.015625 0 L 31.046875 0 L 12.75 -22.28125 L 12.75 0 L 4.359375 0 L 4.359375 -36.703125 L 11.375 -36.703125 L 29.625 -14.421875 L 29.625 -36.703125 Z M 38.015625 -36.703125 "/></g></g></g><g fill="#ffffff" fill-opacity="1"><g transform="translate(345.741638, 714.577806)"><g/></g></g><g fill="#ffffff" fill-opacity="1"><g transform="translate(363.992279, 714.577806)"><g><path d="M 38.015625 -36.703125 L 38.015625 0 L 29.515625 0 L 29.515625 -15.046875 L 12.84375 -15.046875 L 12.84375 0 L 4.359375 0 L 4.359375 -36.703125 L 12.84375 -36.703125 L 12.84375 -22.234375 L 29.515625 -22.234375 L 29.515625 -36.703125 Z M 38.015625 -36.703125 "/></g></g></g><g fill="#ffffff" fill-opacity="1"><g transform="translate(409.776212, 714.577806)"><g><path d="M 4.359375 -36.703125 L 12.84375 -36.703125 L 12.84375 0 L 4.359375 0 Z M 4.359375 -36.703125 "/></g></g></g><g fill="#ffffff" fill-opacity="1"><g transform="translate(430.386861, 714.577806)"><g><path d="M 4.359375 -36.703125 L 21.03125 -36.703125 C 25.007812 -36.703125 28.53125 -35.941406 31.59375 -34.421875 C 34.65625 -32.898438 37.03125 -30.757812 38.71875 -28 C 40.414062 -25.238281 41.265625 -22.023438 41.265625 -18.359375 C 41.265625 -14.679688 40.414062 -11.460938 38.71875 -8.703125 C 37.03125 -5.941406 34.65625 -3.800781 31.59375 -2.28125 C 28.53125 -0.757812 25.007812 0 21.03125 0 L 4.359375 0 Z M 20.609375 -6.96875 C 24.273438 -6.96875 27.203125 -7.988281 29.390625 -10.03125 C 31.578125 -12.082031 32.671875 -14.859375 32.671875 -18.359375 C 32.671875 -21.847656 31.578125 -24.613281 29.390625 -26.65625 C 27.203125 -28.707031 24.273438 -29.734375 20.609375 -29.734375 L 12.84375 -29.734375 L 12.84375 -6.96875 Z M 20.609375 -6.96875 "/></g></g></g><g fill="#ffffff" fill-opacity="1"><g transform="translate(477.114827, 714.577806)"><g><path d="M 28.53125 -7.859375 L 11.484375 -7.859375 L 8.234375 0 L -0.46875 0 L 15.890625 -36.703125 L 24.28125 -36.703125 L 40.6875 0 L 31.78125 0 Z M 25.859375 -14.3125 L 20.03125 -28.375 L 14.203125 -14.3125 Z M 25.859375 -14.3125 "/></g></g></g><g fill="#ffffff" fill-opacity="1"><g transform="translate(520.6961, 714.577806)"><g><path d="M 4.359375 -36.703125 L 12.84375 -36.703125 L 12.84375 -6.921875 L 31.25 -6.921875 L 31.25 0 L 4.359375 0 Z M 4.359375 -36.703125 "/></g></g></g><g fill="#ffffff" fill-opacity="1"><g transform="translate(555.78139, 714.577806)"><g><path d="M 29.15625 -18.9375 L 36.921875 -18.9375 L 36.921875 -4.03125 C 34.921875 -2.53125 32.609375 -1.378906 29.984375 -0.578125 C 27.367188 0.222656 24.734375 0.625 22.078125 0.625 C 18.265625 0.625 14.835938 -0.1875 11.796875 -1.8125 C 8.753906 -3.4375 6.367188 -5.691406 4.640625 -8.578125 C 2.910156 -11.460938 2.046875 -14.722656 2.046875 -18.359375 C 2.046875 -21.992188 2.910156 -25.25 4.640625 -28.125 C 6.367188 -31.007812 8.769531 -33.265625 11.84375 -34.890625 C 14.925781 -36.515625 18.390625 -37.328125 22.234375 -37.328125 C 25.453125 -37.328125 28.367188 -36.785156 30.984375 -35.703125 C 33.609375 -34.617188 35.8125 -33.046875 37.59375 -30.984375 L 32.140625 -25.953125 C 29.523438 -28.710938 26.363281 -30.09375 22.65625 -30.09375 C 20.3125 -30.09375 18.226562 -29.601562 16.40625 -28.625 C 14.59375 -27.644531 13.175781 -26.265625 12.15625 -24.484375 C 11.144531 -22.703125 10.640625 -20.660156 10.640625 -18.359375 C 10.640625 -16.078125 11.144531 -14.046875 12.15625 -12.265625 C 13.175781 -10.484375 14.585938 -9.09375 16.390625 -8.09375 C 18.191406 -7.101562 20.242188 -6.609375 22.546875 -6.609375 C 24.992188 -6.609375 27.195312 -7.132812 29.15625 -8.1875 Z M 29.15625 -18.9375 "/></g></g></g><g fill="#ffffff" fill-opacity="1"><g transform="translate(599.624909, 714.577806)"><g><path d="M 22.125 0.625 C 18.3125 0.625 14.875 -0.191406 11.8125 -1.828125 C 8.757812 -3.472656 6.367188 -5.738281 4.640625 -8.625 C 2.910156 -11.507812 2.046875 -14.753906 2.046875 -18.359375 C 2.046875 -21.953125 2.910156 -25.191406 4.640625 -28.078125 C 6.367188 -30.960938 8.757812 -33.222656 11.8125 -34.859375 C 14.875 -36.503906 18.3125 -37.328125 22.125 -37.328125 C 25.9375 -37.328125 29.363281 -36.503906 32.40625 -34.859375 C 35.445312 -33.222656 37.84375 -30.960938 39.59375 -28.078125 C 41.34375 -25.191406 42.21875 -21.953125 42.21875 -18.359375 C 42.21875 -14.753906 41.34375 -11.507812 39.59375 -8.625 C 37.84375 -5.738281 35.445312 -3.472656 32.40625 -1.828125 C 29.363281 -0.191406 25.9375 0.625 22.125 0.625 Z M 22.125 -6.609375 C 24.289062 -6.609375 26.25 -7.101562 28 -8.09375 C 29.75 -9.09375 31.117188 -10.484375 32.109375 -12.265625 C 33.109375 -14.046875 33.609375 -16.078125 33.609375 -18.359375 C 33.609375 -20.628906 33.109375 -22.65625 32.109375 -24.4375 C 31.117188 -26.21875 29.75 -27.601562 28 -28.59375 C 26.25 -29.59375 24.289062 -30.09375 22.125 -30.09375 C 19.957031 -30.09375 18 -29.59375 16.25 -28.59375 C 14.507812 -27.601562 13.140625 -26.21875 12.140625 -24.4375 C 11.140625 -22.65625 10.640625 -20.628906 10.640625 -18.359375 C 10.640625 -16.078125 11.140625 -14.046875 12.140625 -12.265625 C 13.140625 -10.484375 14.507812 -9.09375 16.25 -8.09375 C 18 -7.101562 19.957031 -6.609375 22.125 -6.609375 Z M 22.125 -6.609375 "/></g></g></g></svg>