<svg xmlns="http://www.w3.org/2000/svg" xmlns:xlink="http://www.w3.org/1999/xlink" width="1080" zoomAndPan="magnify" viewBox="0 0 810 809.999993" height="1080" preserveAspectRatio="xMidYMid meet" version="1.0"><defs><g/><clipPath id="c6f39ff8c9"><path d="M 126.058594 126.058594 L 683.941406 126.058594 L 683.941406 683.941406 L 126.058594 683.941406 Z M 126.058594 126.058594 " clip-rule="nonzero"/></clipPath><clipPath id="dd527094e6"><path d="M 405 126.058594 C 250.945312 126.058594 126.058594 250.945312 126.058594 405 C 126.058594 559.054688 250.945312 683.941406 405 683.941406 C 559.054688 683.941406 683.941406 559.054688 683.941406 405 C 683.941406 250.945312 559.054688 126.058594 405 126.058594 Z M 405 126.058594 " clip-rule="nonzero"/></clipPath><clipPath id="a0edd31fc7"><path d="M 126.058594 126.058594 L 684 126.058594 L 684 405 L 126.058594 405 Z M 126.058594 126.058594 " clip-rule="nonzero"/></clipPath><clipPath id="5b7dc360b7"><path d="M 126.058594 405 L 684 405 L 684 683.941406 L 126.058594 683.941406 Z M 126.058594 405 " clip-rule="nonzero"/></clipPath></defs><g clip-path="url(#c6f39ff8c9)"><g clip-path="url(#dd527094e6)"><path fill="#ffffff" d="M 126.058594 126.058594 L 683.941406 126.058594 L 683.941406 683.941406 L 126.058594 683.941406 Z M 126.058594 126.058594 " fill-opacity="1" fill-rule="nonzero"/></g></g><g clip-path="url(#a0edd31fc7)"><path fill="#ffffff" d="M 126.058594 405 L 683.941406 405 C 683.941406 250.941406 559.054688 126.058594 405 126.058594 C 250.941406 126.058594 126.058594 250.941406 126.058594 405 Z M 126.058594 405 " fill-opacity="1" fill-rule="nonzero"/></g><g clip-path="url(#5b7dc360b7)"><path fill="#292929" d="M 126.058594 405 L 683.941406 405 C 683.941406 559.058594 559.054688 683.941406 405 683.941406 C 250.941406 683.941406 126.058594 559.058594 126.058594 405 Z M 126.058594 405 " fill-opacity="1" fill-rule="nonzero"/></g><path stroke-linecap="butt" transform="matrix(1.076549, 0, 0, 1.076549, 271.73788, 193.99879)" fill="none" stroke-linejoin="miter" d="M 16.256026 288.999794 L 47.359478 83.169837 L 84.272148 83.169837 L 115.3756 288.999794 L 85.981169 288.999794 L 80.375146 247.029003 L 51.25648 247.029003 L 45.650457 288.999794 Z M 67.526648 150.093783 L 66.637667 144.828838 L 64.997588 144.828838 L 64.108606 150.093783 L 55.42562 215.101883 L 76.206006 215.101883 Z M 192.633496 199.379618 L 169.117226 199.379618 L 169.117226 288.999794 L 138.902756 288.999794 L 138.902756 83.169837 L 169.117226 83.169837 L 169.117226 168.345108 L 192.633496 168.345108 L 192.633496 83.169837 L 222.916908 83.169837 L 222.916908 288.999794 L 192.633496 288.999794 Z M 192.633496 199.379618 " stroke="#292929" stroke-width="11.9" stroke-opacity="1" stroke-miterlimit="4"/><g fill="#ffffff" fill-opacity="1"><g transform="translate(286.220822, 505.121315)"><g><path d="M 3.015625 0 L 36.472656 -221.554688 L 76.261719 -221.554688 L 109.722656 0 L 78.070312 0 L 72.042969 -45.214844 L 40.695312 -45.214844 L 34.664062 0 Z M 58.175781 -149.511719 L 57.273438 -155.238281 L 55.464844 -155.238281 L 54.558594 -149.511719 L 45.214844 -79.578125 L 67.519531 -79.578125 Z M 58.175781 -149.511719 "/></g></g></g><g fill="#ffffff" fill-opacity="1"><g transform="translate(409.205535, 505.121315)"><g><path d="M 69.933594 -96.457031 L 44.613281 -96.457031 L 44.613281 0 L 12.058594 0 L 12.058594 -221.554688 L 44.613281 -221.554688 L 44.613281 -129.917969 L 69.933594 -129.917969 L 69.933594 -221.554688 L 102.488281 -221.554688 L 102.488281 0 L 69.933594 0 Z M 69.933594 -96.457031 "/></g></g></g><g fill="#ffffff" fill-opacity="1"><g transform="translate(195.752553, 533.613222)"><g><path d="M 20.953125 14.6875 L 11.5625 3.328125 L 4.53125 5.5 L -0.265625 -0.3125 L 33.21875 -9.625 L 37.84375 -4.03125 L 22.40625 27.125 L 17.5 21.1875 Z M 23.78125 9.359375 L 29.9375 -2.265625 L 17.375 1.59375 Z M 23.78125 9.359375 "/></g></g></g><g fill="#ffffff" fill-opacity="1"><g transform="translate(224.751986, 567.50457)"><g><path d="M 23.34375 -21.828125 L 34.359375 -12.515625 C 36.992188 -10.296875 38.898438 -7.832031 40.078125 -5.125 C 41.253906 -2.414062 41.628906 0.320312 41.203125 3.09375 C 40.773438 5.863281 39.539062 8.460938 37.5 10.890625 C 35.457031 13.316406 33.101562 14.96875 30.4375 15.84375 C 27.78125 16.71875 25.015625 16.804688 22.140625 16.109375 C 19.273438 15.410156 16.523438 13.953125 13.890625 11.734375 L 2.875 2.421875 Z M 17.5 6.875 C 19.925781 8.925781 22.429688 9.882812 25.015625 9.75 C 27.609375 9.625 29.878906 8.40625 31.828125 6.09375 C 33.773438 3.78125 34.59375 1.34375 34.28125 -1.21875 C 33.976562 -3.789062 32.613281 -6.101562 30.1875 -8.15625 L 25.0625 -12.46875 L 12.375 2.5625 Z M 17.5 6.875 "/></g></g></g><g fill="#ffffff" fill-opacity="1"><g transform="translate(261.542209, 597.250564)"><g><path d="M 24.78125 6.40625 L 12 -0.9375 L 6.171875 3.546875 L -0.359375 -0.203125 L 27.734375 -20.671875 L 34.03125 -17.046875 L 30.5 17.546875 L 23.828125 13.703125 Z M 25.546875 0.40625 L 27.25 -12.625 L 16.8125 -4.609375 Z M 37.15625 -25.765625 L 43.765625 -21.96875 L 33.375 -20.390625 L 28.578125 -23.15625 Z M 37.15625 -25.765625 "/></g></g></g><g fill="#ffffff" fill-opacity="1"><g transform="translate(300.575091, 618.784811)"><g><path d="M 41.65625 -18.765625 L 30.9375 11.109375 L 25.265625 9.0625 L 16.875 -14.421875 L 10.375 3.71875 L 3.546875 1.265625 L 14.265625 -28.609375 L 19.984375 -26.546875 L 28.328125 -3.078125 L 34.84375 -21.21875 Z M 41.65625 -18.765625 "/></g></g></g><g fill="#ffffff" fill-opacity="1"><g transform="translate(344.141928, 632.937075)"><g/></g></g><g fill="#ffffff" fill-opacity="1"><g transform="translate(365.699668, 637.757663)"><g><path d="M 35.296875 -29.03125 L 32.765625 2.609375 L 25.453125 2.03125 L 26.484375 -10.9375 L 12.109375 -12.078125 L 11.078125 0.890625 L 3.75 0.296875 L 6.28125 -31.34375 L 13.609375 -30.75 L 12.609375 -18.265625 L 26.984375 -17.125 L 27.984375 -29.609375 Z M 35.296875 -29.03125 "/></g></g></g><g fill="#ffffff" fill-opacity="1"><g transform="translate(411.508877, 640.037946)"><g><path d="M 1.953125 -31.90625 L 9.28125 -32.3125 L 11.09375 -0.625 L 3.765625 -0.21875 Z M 1.953125 -31.90625 "/></g></g></g><g fill="#ffffff" fill-opacity="1"><g transform="translate(435.689801, 638.796198)"><g><path d="M -2.46875 -31.859375 L 11.6875 -34.65625 C 15.070312 -35.320312 18.1875 -35.265625 21.03125 -34.484375 C 23.875 -33.710938 26.25 -32.296875 28.15625 -30.234375 C 30.0625 -28.179688 31.320312 -25.601562 31.9375 -22.5 C 32.550781 -19.375 32.367188 -16.492188 31.390625 -13.859375 C 30.410156 -11.234375 28.753906 -9.019531 26.421875 -7.21875 C 24.085938 -5.425781 21.226562 -4.195312 17.84375 -3.53125 L 3.6875 -0.734375 Z M 16.296875 -9.375 C 19.421875 -9.988281 21.738281 -11.34375 23.25 -13.4375 C 24.757812 -15.539062 25.222656 -18.082031 24.640625 -21.0625 C 24.054688 -24.019531 22.664062 -26.179688 20.46875 -27.546875 C 18.269531 -28.910156 15.609375 -29.285156 12.484375 -28.671875 L 5.90625 -27.375 L 9.71875 -8.078125 Z M 16.296875 -9.375 "/></g></g></g><g fill="#ffffff" fill-opacity="1"><g transform="translate(481.895037, 628.632836)"><g><path d="M 20.484375 -15.34375 L 6.765625 -9.96875 L 6.625 -2.609375 L -0.375 0.15625 L 1.171875 -34.546875 L 7.9375 -37.203125 L 32.75 -12.859375 L 25.578125 -10.046875 Z M 16.28125 -19.6875 L 7.15625 -29.171875 L 6.90625 -16 Z M 16.28125 -19.6875 "/></g></g></g><g fill="#ffffff" fill-opacity="1"><g transform="translate(522.718228, 611.468186)"><g><path d="M -12.875 -29.234375 L -6.5625 -32.96875 L 6.515625 -10.796875 L 20.234375 -18.890625 L 23.28125 -13.734375 L 3.25 -1.90625 Z M -12.875 -29.234375 "/></g></g></g><g fill="#ffffff" fill-opacity="1"><g transform="translate(554.339092, 592.28469)"><g><path d="M 8.984375 -28.6875 L 14.140625 -32.96875 L 22.359375 -23.046875 C 21.859375 -20.953125 20.957031 -18.910156 19.65625 -16.921875 C 18.351562 -14.941406 16.816406 -13.21875 15.046875 -11.75 C 12.503906 -9.644531 9.769531 -8.296875 6.84375 -7.703125 C 3.925781 -7.109375 1.097656 -7.296875 -1.640625 -8.265625 C -4.378906 -9.234375 -6.753906 -10.925781 -8.765625 -13.34375 C -10.773438 -15.769531 -12 -18.414062 -12.4375 -21.28125 C -12.875 -24.15625 -12.515625 -26.984375 -11.359375 -29.765625 C -10.203125 -32.546875 -8.347656 -35 -5.796875 -37.125 C -3.648438 -38.894531 -1.40625 -40.144531 0.9375 -40.875 C 3.289062 -41.601562 5.628906 -41.769531 7.953125 -41.375 L 7.09375 -35.015625 C 3.8125 -35.410156 0.941406 -34.585938 -1.515625 -32.546875 C -3.078125 -31.242188 -4.191406 -29.765625 -4.859375 -28.109375 C -5.535156 -26.460938 -5.71875 -24.765625 -5.40625 -23.015625 C -5.09375 -21.273438 -4.300781 -19.632812 -3.03125 -18.09375 C -1.769531 -16.582031 -0.316406 -15.507812 1.328125 -14.875 C 2.984375 -14.25 4.6875 -14.101562 6.4375 -14.4375 C 8.1875 -14.769531 9.832031 -15.570312 11.375 -16.84375 C 13 -18.1875 14.175781 -19.75 14.90625 -21.53125 Z M 8.984375 -28.6875 "/></g></g></g><g fill="#ffffff" fill-opacity="1"><g transform="translate(588.412527, 563.095763)"><g><path d="M 12.71875 -14.328125 C 10.59375 -11.796875 8.132812 -9.96875 5.34375 -8.84375 C 2.5625 -7.726562 -0.257812 -7.398438 -3.125 -7.859375 C -6 -8.328125 -8.628906 -9.5625 -11.015625 -11.5625 C -13.410156 -13.5625 -15.082031 -15.929688 -16.03125 -18.671875 C -16.976562 -21.410156 -17.144531 -24.25 -16.53125 -27.1875 C -15.925781 -30.132812 -14.5625 -32.875 -12.4375 -35.40625 C -10.320312 -37.925781 -7.875 -39.738281 -5.09375 -40.84375 C -2.3125 -41.945312 0.515625 -42.273438 3.390625 -41.828125 C 6.265625 -41.390625 8.898438 -40.171875 11.296875 -38.171875 C 13.679688 -36.171875 15.34375 -33.789062 16.28125 -31.03125 C 17.226562 -28.269531 17.398438 -25.425781 16.796875 -22.5 C 16.191406 -19.570312 14.832031 -16.847656 12.71875 -14.328125 Z M 7.921875 -18.34375 C 9.128906 -19.78125 9.882812 -21.351562 10.1875 -23.0625 C 10.5 -24.769531 10.335938 -26.445312 9.703125 -28.09375 C 9.078125 -29.738281 8.015625 -31.195312 6.515625 -32.46875 C 5.003906 -33.726562 3.382812 -34.523438 1.65625 -34.859375 C -0.0703125 -35.191406 -1.753906 -35.054688 -3.390625 -34.453125 C -5.023438 -33.847656 -6.445312 -32.828125 -7.65625 -31.390625 C -8.863281 -29.953125 -9.617188 -28.378906 -9.921875 -26.671875 C -10.222656 -24.960938 -10.0625 -23.28125 -9.4375 -21.625 C -8.820312 -19.96875 -7.757812 -18.507812 -6.25 -17.25 C -4.75 -15.976562 -3.128906 -15.179688 -1.390625 -14.859375 C 0.347656 -14.535156 2.03125 -14.675781 3.65625 -15.28125 C 5.289062 -15.882812 6.710938 -16.90625 7.921875 -18.34375 Z M 7.921875 -18.34375 "/></g></g></g><g fill="#292929" fill-opacity="1"><g transform="translate(204.915918, 310.185269)"><g><path d="M 2.828125 -60.625 L 23.25 -34.203125 L 18.8125 -27.6875 L -2.890625 -33.984375 L 10.828125 -15.9375 L 6.421875 -9.453125 L -25.6875 -18.671875 L -21.40625 -24.96875 L 1.0625 -18.359375 L -13.171875 -37.078125 L -9.34375 -42.703125 L 13.3125 -36.0625 L -1.125 -54.8125 Z M 2.828125 -60.625 "/></g></g></g><g fill="#292929" fill-opacity="1"><g transform="translate(238.547453, 263.627426)"><g><path d="M 16.3125 -23.90625 L 20.40625 -19.671875 L 2.703125 -2.609375 L -19.328125 -25.453125 L -2.0625 -42.109375 L 2.03125 -37.875 L -9.96875 -26.28125 L -5.1875 -21.3125 L 5.40625 -31.546875 L 9.375 -27.4375 L -1.21875 -17.203125 L 3.875 -11.90625 Z M 16.3125 -23.90625 "/></g></g></g><g fill="#292929" fill-opacity="1"><g transform="translate(264.421225, 239.053406)"><g><path d="M 13.0625 -28.875 C 14.882812 -29.425781 16.597656 -29.4375 18.203125 -28.90625 C 19.804688 -28.375 21.164062 -27.296875 22.28125 -25.671875 C 23.84375 -23.367188 24.148438 -20.992188 23.203125 -18.546875 C 22.265625 -16.097656 20.085938 -13.703125 16.671875 -11.359375 L 3.109375 -2.125 L -14.765625 -28.34375 L -1.953125 -37.078125 C 1.242188 -39.253906 4.113281 -40.3125 6.65625 -40.25 C 9.195312 -40.195312 11.179688 -39.125 12.609375 -37.03125 C 13.484375 -35.75 13.953125 -34.398438 14.015625 -32.984375 C 14.085938 -31.578125 13.769531 -30.207031 13.0625 -28.875 Z M -5.625 -27.875 L -1.421875 -21.71875 L 4.609375 -25.828125 C 6.097656 -26.847656 7.050781 -27.878906 7.46875 -28.921875 C 7.894531 -29.972656 7.757812 -31.007812 7.0625 -32.03125 C 6.363281 -33.050781 5.453125 -33.550781 4.328125 -33.53125 C 3.203125 -33.519531 1.894531 -33.003906 0.40625 -31.984375 Z M 13.109375 -15.625 C 14.703125 -16.707031 15.722656 -17.789062 16.171875 -18.875 C 16.628906 -19.957031 16.484375 -21.050781 15.734375 -22.15625 C 14.253906 -24.320312 11.90625 -24.304688 8.6875 -22.109375 L 1.609375 -17.28125 L 6.03125 -10.796875 Z M 13.109375 -15.625 "/></g></g></g><g fill="#292929" fill-opacity="1"><g transform="translate(298.36445, 217.220144)"><g/></g></g><g fill="#292929" fill-opacity="1"><g transform="translate(314.699383, 208.476458)"><g><path d="M -6.703125 -31.25 L 6.9375 -35.921875 C 10.195312 -37.035156 13.285156 -37.394531 16.203125 -37 C 19.128906 -36.613281 21.675781 -35.523438 23.84375 -33.734375 C 26.007812 -31.953125 27.601562 -29.5625 28.625 -26.5625 C 29.65625 -23.5625 29.859375 -20.691406 29.234375 -17.953125 C 28.617188 -15.210938 27.273438 -12.796875 25.203125 -10.703125 C 23.128906 -8.609375 20.460938 -7.003906 17.203125 -5.890625 L 3.5625 -1.21875 Z M 14.90625 -11.46875 C 17.90625 -12.5 20.015625 -14.15625 21.234375 -16.4375 C 22.453125 -18.71875 22.570312 -21.289062 21.59375 -24.15625 C 20.613281 -27.019531 18.941406 -28.976562 16.578125 -30.03125 C 14.222656 -31.09375 11.546875 -31.109375 8.546875 -30.078125 L 2.203125 -27.90625 L 8.5625 -9.296875 Z M 14.90625 -11.46875 "/></g></g></g><g fill="#292929" fill-opacity="1"><g transform="translate(355.251091, 195.402629)"><g><path d="M 27.09375 -10.1875 L 28 -4.375 L 3.71875 -0.578125 L -1.1875 -31.9375 L 22.515625 -35.640625 L 23.421875 -29.8125 L 6.921875 -27.234375 L 8 -20.421875 L 22.5625 -22.703125 L 23.4375 -17.0625 L 8.875 -14.78125 L 10.015625 -7.515625 Z M 27.09375 -10.1875 "/></g></g></g><g fill="#292929" fill-opacity="1"><g transform="translate(390.572048, 190.180677)"><g><path d="M 34.65625 -31.328125 L 20.546875 0.234375 L 13.28125 0.15625 L -0.03125 -31.734375 L 7.90625 -31.640625 L 17.296875 -8.859375 L 27.359375 -31.421875 Z M 34.65625 -31.328125 "/></g></g></g><g fill="#292929" fill-opacity="1"><g transform="translate(429.642707, 191.217846)"><g><path d="M 28.9375 -0.765625 L 27.890625 5.03125 L 3.703125 0.671875 L 9.34375 -30.5625 L 32.953125 -26.3125 L 31.90625 -20.515625 L 15.484375 -23.46875 L 14.25 -16.6875 L 28.75 -14.078125 L 27.734375 -8.453125 L 13.234375 -11.0625 L 11.9375 -3.828125 Z M 28.9375 -0.765625 "/></g></g></g><g fill="#292929" fill-opacity="1"><g transform="translate(464.827159, 198.106573)"><g><path d="M 13.890625 -28.78125 L 20.828125 -26.375 L 12.453125 -2.03125 L 27.515625 3.140625 L 25.5625 8.796875 L 3.5625 1.21875 Z M 13.890625 -28.78125 "/></g></g></g><g fill="#292929" fill-opacity="1"><g transform="translate(495.709506, 208.727544)"><g><path d="M 16.515625 9.6875 C 13.617188 8.101562 11.351562 6.046875 9.71875 3.515625 C 8.082031 0.992188 7.207031 -1.71875 7.09375 -4.625 C 6.988281 -7.53125 7.679688 -10.347656 9.171875 -13.078125 C 10.671875 -15.804688 12.675781 -17.898438 15.1875 -19.359375 C 17.695312 -20.828125 20.453125 -21.546875 23.453125 -21.515625 C 26.453125 -21.492188 29.398438 -20.691406 32.296875 -19.109375 C 35.179688 -17.523438 37.4375 -15.472656 39.0625 -12.953125 C 40.6875 -10.441406 41.5625 -7.734375 41.6875 -4.828125 C 41.8125 -1.921875 41.125 0.894531 39.625 3.625 C 38.132812 6.351562 36.125 8.445312 33.59375 9.90625 C 31.070312 11.375 28.316406 12.097656 25.328125 12.078125 C 22.335938 12.066406 19.398438 11.269531 16.515625 9.6875 Z M 19.53125 4.1875 C 21.175781 5.082031 22.863281 5.515625 24.59375 5.484375 C 26.332031 5.460938 27.953125 4.984375 29.453125 4.046875 C 30.953125 3.109375 32.171875 1.773438 33.109375 0.046875 C 34.054688 -1.671875 34.519531 -3.410156 34.5 -5.171875 C 34.488281 -6.929688 34.03125 -8.554688 33.125 -10.046875 C 32.21875 -11.535156 30.941406 -12.726562 29.296875 -13.625 C 27.648438 -14.53125 25.957031 -14.960938 24.21875 -14.921875 C 22.476562 -14.890625 20.859375 -14.40625 19.359375 -13.46875 C 17.859375 -12.539062 16.632812 -11.21875 15.6875 -9.5 C 14.75 -7.769531 14.285156 -6.019531 14.296875 -4.25 C 14.316406 -2.488281 14.78125 -0.867188 15.6875 0.609375 C 16.601562 2.085938 17.882812 3.28125 19.53125 4.1875 Z M 19.53125 4.1875 "/></g></g></g><g fill="#292929" fill-opacity="1"><g transform="translate(533.374258, 230.162492)"><g><path d="M 33.609375 -13.5625 C 35.796875 -11.78125 37.394531 -9.867188 38.40625 -7.828125 C 39.414062 -5.796875 39.8125 -3.757812 39.59375 -1.71875 C 39.375 0.3125 38.515625 2.242188 37.015625 4.078125 C 35.546875 5.878906 33.828125 7.101562 31.859375 7.75 C 29.898438 8.394531 27.828125 8.421875 25.640625 7.828125 C 23.460938 7.234375 21.28125 6.046875 19.09375 4.265625 L 14.140625 0.234375 L 8.609375 7.015625 L 2.921875 2.375 L 22.96875 -22.234375 Z M 22.5625 -0.625 C 24.28125 0.769531 25.878906 1.457031 27.359375 1.4375 C 28.847656 1.425781 30.144531 0.742188 31.25 -0.609375 C 32.382812 -2.003906 32.804688 -3.429688 32.515625 -4.890625 C 32.234375 -6.347656 31.234375 -7.773438 29.515625 -9.171875 L 24.875 -12.953125 L 17.921875 -4.40625 Z M 22.5625 -0.625 "/></g></g></g><g fill="#292929" fill-opacity="1"><g transform="translate(562.846887, 254.887267)"><g><path d="M 23.15625 17.390625 L 18.734375 21.28125 L 2.484375 2.828125 L 26.296875 -18.140625 L 42.140625 -0.140625 L 37.734375 3.75 L 26.71875 -8.78125 L 21.53125 -4.21875 L 31.265625 6.84375 L 26.984375 10.609375 L 17.25 -0.453125 L 11.734375 4.40625 Z M 23.15625 17.390625 "/></g></g></g><g fill="#292929" fill-opacity="1"><g transform="translate(586.207783, 281.901729)"><g><path d="M 12.65625 20.375 L 16.9375 10.5 L 16.75 10.1875 L 13.375 4.765625 L 5.859375 9.4375 L 1.984375 3.203125 L 28.9375 -13.546875 L 36.1875 -1.890625 C 37.675781 0.503906 38.566406 2.828125 38.859375 5.078125 C 39.160156 7.335938 38.875 9.390625 38 11.234375 C 37.132812 13.085938 35.695312 14.640625 33.6875 15.890625 C 31.6875 17.128906 29.660156 17.71875 27.609375 17.65625 C 25.566406 17.601562 23.609375 16.925781 21.734375 15.625 L 16.828125 27.078125 Z M 29.75 9.578125 C 31.269531 8.628906 32.128906 7.414062 32.328125 5.9375 C 32.535156 4.46875 32.054688 2.796875 30.890625 0.921875 L 27.734375 -4.15625 L 18.328125 1.6875 L 21.484375 6.765625 C 22.648438 8.640625 23.945312 9.804688 25.375 10.265625 C 26.800781 10.734375 28.257812 10.503906 29.75 9.578125 Z M 29.75 9.578125 "/></g></g></g></svg>